<svg width="104" height="104" viewBox="0 0 104 104" fill="none" xmlns="http://www.w3.org/2000/svg">
<rect x="2" y="2" width="100" height="100" stroke="#616162" stroke-width="3"/>
<path d="M41.1172 35.9688L33.7812 64H26.5391L37.2031 29.875H41.7266L41.1172 35.9688ZM46.9062 64L39.5234 35.9688L38.8438 29.875H43.4375L54.1953 64H46.9062ZM47.1641 51.2734V56.9688H31.7656V51.2734H47.1641ZM70.4609 38.6406H76.4141V64C76.4141 66.3125 75.9688 68.2031 75.0781 69.6719C74.2031 71.1562 72.9766 72.2422 71.3984 72.9297C69.8359 73.6328 68.0078 73.9844 65.9141 73.9844C65.1172 73.9844 64.2188 73.875 63.2188 73.6562C62.2344 73.4375 61.2812 73.1016 60.3594 72.6484C59.4375 72.2109 58.6797 71.6797 58.0859 71.0547L60.3125 66.5078C60.9219 67.1172 61.7188 67.6328 62.7031 68.0547C63.6875 68.4922 64.6562 68.7109 65.6094 68.7109C66.5312 68.7109 67.2969 68.5625 67.9062 68.2656C68.5312 67.9844 69 67.5 69.3125 66.8125C69.6406 66.125 69.8047 65.2031 69.8047 64.0469V44.5234L70.4609 38.6406ZM56.3047 52.2109V50.5234C56.3047 48.4609 56.5 46.6562 56.8906 45.1094C57.2812 43.5625 57.8438 42.2734 58.5781 41.2422C59.3125 40.2109 60.2109 39.4453 61.2734 38.9453C62.3516 38.4297 63.5547 38.1719 64.8828 38.1719C66.2734 38.1719 67.4375 38.4766 68.375 39.0859C69.3125 39.6797 70.0703 40.5156 70.6484 41.5938C71.2422 42.6719 71.6953 43.9453 72.0078 45.4141C72.3359 46.8828 72.5859 48.4922 72.7578 50.2422V52.6797C72.5859 54.3359 72.3047 55.8828 71.9141 57.3203C71.5391 58.7578 71.0391 60.0078 70.4141 61.0703C69.7891 62.1328 69.0234 62.9688 68.1172 63.5781C67.2109 64.1719 66.1172 64.4688 64.8359 64.4688C63.5234 64.4688 62.3359 64.2031 61.2734 63.6719C60.2266 63.1406 59.3281 62.3594 58.5781 61.3281C57.8438 60.2812 57.2812 59 56.8906 57.4844C56.5 55.9531 56.3047 54.1953 56.3047 52.2109ZM62.8906 50.5234V52.2109C62.8906 53.3984 62.9609 54.4219 63.1016 55.2812C63.2578 56.125 63.4922 56.8203 63.8047 57.3672C64.1172 57.8984 64.5156 58.2969 65 58.5625C65.5 58.8125 66.0859 58.9375 66.7578 58.9375C67.7109 58.9375 68.4688 58.7188 69.0312 58.2812C69.6094 57.8281 70.0312 57.2109 70.2969 56.4297C70.5781 55.6328 70.7344 54.7188 70.7656 53.6875V49.2578C70.75 48.3984 70.6484 47.625 70.4609 46.9375C70.2891 46.25 70.0469 45.6641 69.7344 45.1797C69.4219 44.6953 69.0156 44.3203 68.5156 44.0547C68.0312 43.7891 67.4609 43.6562 66.8047 43.6562C66.1328 43.6562 65.5547 43.7891 65.0703 44.0547C64.5859 44.3203 64.1797 44.7344 63.8516 45.2969C63.5391 45.8438 63.2969 46.5547 63.125 47.4297C62.9688 48.2891 62.8906 49.3203 62.8906 50.5234Z" fill="#616162"/>
<path d="M42.2031 88.125C42.2031 87.8594 42.1719 87.625 42.1094 87.4219C42.0469 87.2135 41.9375 87.026 41.7812 86.8594C41.625 86.6927 41.4062 86.5339 41.125 86.3828C40.8438 86.2318 40.487 86.0781 40.0547 85.9219C39.5859 85.7552 39.1615 85.5703 38.7812 85.3672C38.401 85.1589 38.0755 84.9219 37.8047 84.6562C37.5391 84.3906 37.3333 84.0859 37.1875 83.7422C37.0417 83.3984 36.9688 83.0052 36.9688 82.5625C36.9688 82.1198 37.0443 81.7109 37.1953 81.3359C37.3516 80.9609 37.5703 80.6354 37.8516 80.3594C38.138 80.0781 38.4818 79.8594 38.8828 79.7031C39.2839 79.5469 39.7318 79.4688 40.2266 79.4688C40.9661 79.4688 41.5885 79.6328 42.0938 79.9609C42.6042 80.2839 42.9896 80.7083 43.25 81.2344C43.5104 81.7552 43.6406 82.3125 43.6406 82.9062H42.2031C42.2031 82.4792 42.1328 82.1016 41.9922 81.7734C41.8568 81.4401 41.6432 81.1797 41.3516 80.9922C41.0651 80.7995 40.6901 80.7031 40.2266 80.7031C39.8099 80.7031 39.4661 80.7839 39.1953 80.9453C38.9297 81.1068 38.7318 81.3255 38.6016 81.6016C38.4766 81.8776 38.4141 82.1927 38.4141 82.5469C38.4141 82.7865 38.4557 83.0052 38.5391 83.2031C38.6224 83.3958 38.75 83.5755 38.9219 83.7422C39.099 83.9089 39.3177 84.0625 39.5781 84.2031C39.8438 84.3438 40.1562 84.4792 40.5156 84.6094C41.0729 84.7917 41.5495 84.9948 41.9453 85.2188C42.3411 85.4427 42.6641 85.6953 42.9141 85.9766C43.1641 86.2526 43.3464 86.5677 43.4609 86.9219C43.5807 87.2708 43.6406 87.6667 43.6406 88.1094C43.6406 88.5729 43.5625 88.9922 43.4062 89.3672C43.2552 89.7422 43.0339 90.0625 42.7422 90.3281C42.4505 90.5938 42.099 90.7995 41.6875 90.9453C41.276 91.0859 40.8125 91.1562 40.2969 91.1562C39.849 91.1562 39.4089 91.0833 38.9766 90.9375C38.5495 90.7917 38.1615 90.5729 37.8125 90.2812C37.4635 89.9896 37.1849 89.6302 36.9766 89.2031C36.7682 88.7708 36.6641 88.2708 36.6641 87.7031H38.1016C38.1016 88.0938 38.1589 88.4297 38.2734 88.7109C38.388 88.987 38.5469 89.2161 38.75 89.3984C38.9531 89.5807 39.1849 89.7161 39.4453 89.8047C39.7109 89.888 39.9948 89.9297 40.2969 89.9297C40.7135 89.9297 41.0625 89.8568 41.3438 89.7109C41.6302 89.5651 41.8438 89.3568 41.9844 89.0859C42.1302 88.8151 42.2031 88.4948 42.2031 88.125ZM46.8203 82.5469V91H45.4453V82.5469H46.8203ZM45.3672 80.3047C45.3672 80.0703 45.4323 79.8724 45.5625 79.7109C45.6927 79.5495 45.888 79.4688 46.1484 79.4688C46.4089 79.4688 46.6042 79.5495 46.7344 79.7109C46.8698 79.8724 46.9375 80.0703 46.9375 80.3047C46.9375 80.5286 46.8698 80.7214 46.7344 80.8828C46.6042 81.0391 46.4089 81.1172 46.1484 81.1172C45.888 81.1172 45.6927 81.0391 45.5625 80.8828C45.4323 80.7214 45.3672 80.5286 45.3672 80.3047ZM50.4922 79V91H49.1172V79H50.4922ZM52.6797 79H54.0625V89.3594L53.9453 91H52.6797V79ZM58.8047 86.3906V87.1797C58.8047 87.8464 58.7422 88.4297 58.6172 88.9297C58.4974 89.4245 58.3177 89.8385 58.0781 90.1719C57.8385 90.5 57.5469 90.7474 57.2031 90.9141C56.8594 91.0755 56.4661 91.1562 56.0234 91.1562C55.5859 91.1562 55.2083 91.0677 54.8906 90.8906C54.5729 90.7135 54.3073 90.4583 54.0938 90.125C53.8802 89.7917 53.7109 89.388 53.5859 88.9141C53.4661 88.4401 53.3828 87.9062 53.3359 87.3125V86.2578C53.3828 85.6589 53.4661 85.1224 53.5859 84.6484C53.7057 84.1693 53.8724 83.763 54.0859 83.4297C54.2995 83.0911 54.5651 82.8333 54.8828 82.6562C55.2005 82.4792 55.5781 82.3906 56.0156 82.3906C56.4635 82.3906 56.8594 82.4688 57.2031 82.625C57.5521 82.7812 57.8438 83.0234 58.0781 83.3516C58.3177 83.6745 58.4974 84.0885 58.6172 84.5938C58.7422 85.0938 58.8047 85.6927 58.8047 86.3906ZM57.4219 87.1797V86.3906C57.4219 85.9219 57.3906 85.513 57.3281 85.1641C57.2708 84.8151 57.1745 84.526 57.0391 84.2969C56.9036 84.0677 56.7214 83.8958 56.4922 83.7812C56.2682 83.6667 55.9896 83.6094 55.6562 83.6094C55.375 83.6094 55.1276 83.6667 54.9141 83.7812C54.7057 83.8958 54.526 84.0521 54.375 84.25C54.224 84.4427 54.099 84.6641 54 84.9141C53.901 85.1589 53.8281 85.4141 53.7812 85.6797V87.8984C53.849 88.237 53.9557 88.5625 54.1016 88.875C54.2526 89.1823 54.4557 89.4349 54.7109 89.6328C54.9661 89.8307 55.2839 89.9297 55.6641 89.9297C55.9818 89.9297 56.25 89.875 56.4688 89.7656C56.6927 89.6562 56.875 89.4896 57.0156 89.2656C57.1562 89.0365 57.2578 88.75 57.3203 88.4062C57.388 88.0573 57.4219 87.6484 57.4219 87.1797ZM63.5938 91.1562C63.0885 91.1562 62.6328 91.0807 62.2266 90.9297C61.8203 90.7786 61.474 90.5495 61.1875 90.2422C60.901 89.9297 60.6823 89.5365 60.5312 89.0625C60.3802 88.5885 60.3047 88.0286 60.3047 87.3828V86.4297C60.3047 85.6849 60.3906 85.0547 60.5625 84.5391C60.7396 84.0234 60.9766 83.6094 61.2734 83.2969C61.5703 82.9792 61.9062 82.75 62.2812 82.6094C62.6562 82.4635 63.0417 82.3906 63.4375 82.3906C63.9688 82.3906 64.4219 82.4766 64.7969 82.6484C65.1719 82.8203 65.4766 83.0755 65.7109 83.4141C65.9453 83.7526 66.1172 84.1693 66.2266 84.6641C66.3411 85.1589 66.3984 85.7292 66.3984 86.375V87.1797H61.1172V86H65.0156V85.8047C64.9948 85.3672 64.9349 84.9818 64.8359 84.6484C64.7422 84.3151 64.5859 84.0547 64.3672 83.8672C64.1484 83.6745 63.8385 83.5781 63.4375 83.5781C63.1823 83.5781 62.9453 83.6224 62.7266 83.7109C62.513 83.7943 62.3281 83.9427 62.1719 84.1562C62.0208 84.3646 61.901 84.6536 61.8125 85.0234C61.7292 85.3932 61.6875 85.862 61.6875 86.4297V87.3828C61.6875 87.8359 61.7292 88.2266 61.8125 88.5547C61.901 88.8776 62.0286 89.1458 62.1953 89.3594C62.3672 89.5677 62.5755 89.724 62.8203 89.8281C63.0703 89.9271 63.3542 89.9766 63.6719 89.9766C64.1354 89.9766 64.5182 89.888 64.8203 89.7109C65.1224 89.5286 65.3854 89.2969 65.6094 89.0156L66.3359 89.8828C66.1849 90.0964 65.987 90.3021 65.7422 90.5C65.5026 90.6927 65.2057 90.8516 64.8516 90.9766C64.5026 91.0964 64.0833 91.1562 63.5938 91.1562ZM69.4531 83.875V91H68.0703V82.5469H69.4062L69.4531 83.875ZM71.5547 82.5L71.5625 83.8438C71.4479 83.8177 71.3438 83.8021 71.25 83.7969C71.1615 83.7865 71.0573 83.7812 70.9375 83.7812C70.6771 83.7812 70.4479 83.8333 70.25 83.9375C70.0573 84.0417 69.8906 84.1875 69.75 84.375C69.6094 84.5625 69.4974 84.7865 69.4141 85.0469C69.3307 85.3021 69.2734 85.5833 69.2422 85.8906L68.8828 86.125C68.8828 85.6146 68.9219 85.1354 69 84.6875C69.0833 84.2396 69.2109 83.8438 69.3828 83.5C69.5547 83.151 69.7734 82.8802 70.0391 82.6875C70.3099 82.4896 70.6328 82.3906 71.0078 82.3906C71.0911 82.3906 71.1927 82.4036 71.3125 82.4297C71.4375 82.4505 71.5182 82.474 71.5547 82.5Z" fill="#616162"/>
<path d="M16.4219 16.1719V17.3594H9.46875V16.5078L13.6953 8.625H14.8047L13.6953 10.9062L11.0078 16.1719H16.4219ZM15.1562 8.625V20H13.7734V8.625H15.1562ZM24.1016 8.625V9.4375L20.1875 20H18.7344L22.6484 9.8125H17.5781V8.625H24.1016Z" fill="#616162"/>
<path d="M57.0312 8.5625V20H55.6484V10.3672L53.2578 11.4297V10.125L56.8203 8.5625H57.0312ZM66.8984 13.4062V15.1406C66.8984 16.0729 66.8255 16.8594 66.6797 17.5C66.5391 18.1406 66.3359 18.6562 66.0703 19.0469C65.8047 19.4375 65.4844 19.7214 65.1094 19.8984C64.7396 20.0703 64.3229 20.1562 63.8594 20.1562C63.4948 20.1562 63.1536 20.1016 62.8359 19.9922C62.5234 19.8828 62.2422 19.7083 61.9922 19.4688C61.7422 19.224 61.5286 18.9062 61.3516 18.5156C61.1745 18.125 61.0391 17.651 60.9453 17.0938C60.8516 16.5365 60.8047 15.8854 60.8047 15.1406V13.4062C60.8047 12.474 60.8776 11.6927 61.0234 11.0625C61.1693 10.4323 61.375 9.92708 61.6406 9.54688C61.9115 9.16146 62.2318 8.88542 62.6016 8.71875C62.9766 8.55208 63.3932 8.46875 63.8516 8.46875C64.2214 8.46875 64.5625 8.52344 64.875 8.63281C65.1927 8.73698 65.474 8.90625 65.7188 9.14062C65.9688 9.36979 66.1823 9.67708 66.3594 10.0625C66.5365 10.4427 66.6693 10.9089 66.7578 11.4609C66.8516 12.013 66.8984 12.6615 66.8984 13.4062ZM65.5234 15.375V13.1641C65.5234 12.6536 65.5 12.2057 65.4531 11.8203C65.4062 11.4297 65.3385 11.0964 65.25 10.8203C65.1615 10.5443 65.0469 10.3203 64.9062 10.1484C64.7708 9.97656 64.6146 9.85156 64.4375 9.77344C64.2604 9.6901 64.0651 9.64844 63.8516 9.64844C63.5859 9.64844 63.349 9.71354 63.1406 9.84375C62.9375 9.96875 62.763 10.1693 62.6172 10.4453C62.4766 10.7214 62.3698 11.0833 62.2969 11.5312C62.224 11.9792 62.1875 12.5234 62.1875 13.1641V15.375C62.1875 15.8854 62.2109 16.3359 62.2578 16.7266C62.3099 17.1172 62.3802 17.4557 62.4688 17.7422C62.5625 18.0234 62.6771 18.2552 62.8125 18.4375C62.9479 18.6198 63.1042 18.7552 63.2812 18.8438C63.4583 18.9271 63.651 18.9688 63.8594 18.9688C64.1354 18.9688 64.375 18.901 64.5781 18.7656C64.7865 18.6302 64.9609 18.4193 65.1016 18.1328C65.2422 17.8411 65.3464 17.4688 65.4141 17.0156C65.487 16.5573 65.5234 16.0104 65.5234 15.375ZM75.0078 8.625V9.4375L71.0938 20H69.6406L73.5547 9.8125H68.4844V8.625H75.0078ZM78.1328 18.2812V19.4453C78.1328 19.9193 78.013 20.4193 77.7734 20.9453C77.5339 21.4766 77.1979 21.9193 76.7656 22.2734L75.9453 21.7031C76.112 21.474 76.2526 21.2396 76.3672 21C76.4818 20.7656 76.5677 20.5208 76.625 20.2656C76.6875 20.0156 76.7188 19.75 76.7188 19.4688V18.2812H78.1328ZM85.8594 16.9219C85.8594 17.6146 85.7266 18.2031 85.4609 18.6875C85.1953 19.1667 84.8333 19.5312 84.375 19.7812C83.9167 20.0312 83.3984 20.1562 82.8203 20.1562C82.2474 20.1562 81.7318 20.0312 81.2734 19.7812C80.8151 19.5312 80.4531 19.1667 80.1875 18.6875C79.9219 18.2031 79.7891 17.6146 79.7891 16.9219C79.7891 16.4688 79.862 16.0547 80.0078 15.6797C80.1536 15.2995 80.3594 14.9688 80.625 14.6875C80.8958 14.4062 81.2161 14.1901 81.5859 14.0391C81.9557 13.8828 82.3646 13.8047 82.8125 13.8047C83.401 13.8047 83.9245 13.9401 84.3828 14.2109C84.8411 14.4766 85.2005 14.8438 85.4609 15.3125C85.7266 15.7812 85.8594 16.3177 85.8594 16.9219ZM84.4844 16.8906C84.4844 16.4688 84.4141 16.0964 84.2734 15.7734C84.138 15.4453 83.9453 15.1901 83.6953 15.0078C83.4453 14.8255 83.151 14.7344 82.8125 14.7344C82.4688 14.7344 82.1745 14.8255 81.9297 15.0078C81.6849 15.1901 81.4948 15.4453 81.3594 15.7734C81.2292 16.0964 81.1641 16.4688 81.1641 16.8906C81.1641 17.3281 81.2292 17.7031 81.3594 18.0156C81.4896 18.3229 81.6771 18.5599 81.9219 18.7266C82.1719 18.888 82.474 18.9688 82.8281 18.9688C83.1771 18.9688 83.474 18.888 83.7188 18.7266C83.9688 18.5599 84.1589 18.3229 84.2891 18.0156C84.4193 17.7031 84.4844 17.3281 84.4844 16.8906ZM85.6484 11.5859C85.6484 12.138 85.526 12.6354 85.2812 13.0781C85.0365 13.5208 84.7005 13.8698 84.2734 14.125C83.8516 14.3802 83.3698 14.5078 82.8281 14.5078C82.276 14.5078 81.7865 14.3802 81.3594 14.125C80.9323 13.8698 80.599 13.5208 80.3594 13.0781C80.1198 12.6354 80 12.138 80 11.5859C80 10.9245 80.1198 10.362 80.3594 9.89844C80.6042 9.4349 80.9401 9.08073 81.3672 8.83594C81.7943 8.59115 82.2812 8.46875 82.8281 8.46875C83.3802 8.46875 83.8672 8.59115 84.2891 8.83594C84.7109 9.08073 85.0417 9.4349 85.2812 9.89844C85.526 10.362 85.6484 10.9245 85.6484 11.5859ZM84.2656 11.6094C84.2656 11.2292 84.2057 10.8932 84.0859 10.6016C83.9714 10.3099 83.8047 10.0807 83.5859 9.91406C83.3724 9.74219 83.1198 9.65625 82.8281 9.65625C82.5365 9.65625 82.2812 9.73698 82.0625 9.89844C81.849 10.0547 81.6823 10.2786 81.5625 10.5703C81.4427 10.862 81.3828 11.2083 81.3828 11.6094C81.3828 12 81.4401 12.3411 81.5547 12.6328C81.6745 12.9245 81.8438 13.151 82.0625 13.3125C82.2812 13.474 82.5365 13.5547 82.8281 13.5547C83.1198 13.5547 83.3724 13.474 83.5859 13.3125C83.8047 13.151 83.9714 12.9245 84.0859 12.6328C84.2057 12.3411 84.2656 12 84.2656 11.6094ZM93.9766 8.625V9.4375L90.0625 20H88.6094L92.5234 9.8125H87.4531V8.625H93.9766Z" fill="#616162"/>
</svg>
