<svg width="104" height="104" viewBox="0 0 104 104" fill="none" xmlns="http://www.w3.org/2000/svg">
<rect x="2" y="2" width="100" height="100" stroke="#616162" stroke-width="3"/>
<path d="M41.1172 35.9688L33.7812 64H26.5391L37.2031 29.875H41.7266L41.1172 35.9688ZM46.9062 64L39.5234 35.9688L38.8438 29.875H43.4375L54.1953 64H46.9062ZM47.1641 51.2734V56.9688H31.7656V51.2734H47.1641ZM69.1016 57.9062V38.6406H75.6875V64H69.5L69.1016 57.9062ZM69.8516 52.6797L71.6797 52.6328C71.6797 54.3359 71.5156 55.9141 71.1875 57.3672C70.8594 58.8047 70.3672 60.0547 69.7109 61.1172C69.0547 62.1797 68.2344 63.0078 67.25 63.6016C66.2656 64.1797 65.1016 64.4688 63.7578 64.4688C62.7266 64.4688 61.7734 64.2969 60.8984 63.9531C60.0391 63.5938 59.2969 63.0391 58.6719 62.2891C58.0469 61.5234 57.5547 60.5469 57.1953 59.3594C56.8516 58.1562 56.6797 56.7109 56.6797 55.0234V38.6406H63.2656V55.0938C63.2656 55.7812 63.3281 56.375 63.4531 56.875C63.5781 57.3594 63.75 57.7578 63.9688 58.0703C64.1875 58.3828 64.4453 58.6094 64.7422 58.75C65.0391 58.875 65.375 58.9375 65.75 58.9375C66.7812 58.9375 67.5938 58.6719 68.1875 58.1406C68.7969 57.5938 69.2266 56.8516 69.4766 55.9141C69.7266 54.9609 69.8516 53.8828 69.8516 52.6797Z" fill="#616162"/>
<path d="M45.3516 85.3359V89.5781C45.2266 89.7448 45.0365 89.9531 44.7812 90.2031C44.5312 90.4531 44.1797 90.6745 43.7266 90.8672C43.2734 91.0599 42.6797 91.1562 41.9453 91.1562C41.3568 91.1562 40.8177 91.0573 40.3281 90.8594C39.8438 90.6615 39.4245 90.3646 39.0703 89.9688C38.7214 89.5677 38.4505 89.0703 38.2578 88.4766C38.0651 87.8776 37.9688 87.1771 37.9688 86.375V84.2422C37.9688 83.4453 38.0495 82.7474 38.2109 82.1484C38.3724 81.5495 38.612 81.0521 38.9297 80.6562C39.2526 80.2604 39.651 79.9635 40.125 79.7656C40.6042 79.5677 41.1615 79.4688 41.7969 79.4688C42.5312 79.4688 43.1562 79.6068 43.6719 79.8828C44.1875 80.1589 44.5859 80.5573 44.8672 81.0781C45.1536 81.599 45.3151 82.224 45.3516 82.9531H43.9141C43.8776 82.4844 43.7786 82.0833 43.6172 81.75C43.4557 81.4115 43.2266 81.1536 42.9297 80.9766C42.6328 80.7943 42.2552 80.7031 41.7969 80.7031C41.3594 80.7031 40.9896 80.776 40.6875 80.9219C40.3854 81.0677 40.138 81.2865 39.9453 81.5781C39.7578 81.8698 39.6198 82.237 39.5312 82.6797C39.4479 83.1224 39.4062 83.638 39.4062 84.2266V86.375C39.4062 86.9792 39.4661 87.5052 39.5859 87.9531C39.7057 88.401 39.875 88.7708 40.0938 89.0625C40.3177 89.3542 40.5859 89.5729 40.8984 89.7188C41.2109 89.8594 41.5625 89.9297 41.9531 89.9297C42.3958 89.9297 42.7448 89.8828 43 89.7891C43.2552 89.6953 43.4505 89.5885 43.5859 89.4688C43.7266 89.349 43.8385 89.2526 43.9219 89.1797V86.5547H41.8359V85.3359H45.3516ZM47.2031 87.1797V86.375C47.2031 85.7188 47.2865 85.1432 47.4531 84.6484C47.6198 84.1484 47.8516 83.7318 48.1484 83.3984C48.4453 83.0651 48.7917 82.8151 49.1875 82.6484C49.5833 82.4766 50.0078 82.3906 50.4609 82.3906C50.9245 82.3906 51.3542 82.4766 51.75 82.6484C52.1458 82.8151 52.4922 83.0651 52.7891 83.3984C53.0911 83.7318 53.3255 84.1484 53.4922 84.6484C53.6589 85.1432 53.7422 85.7188 53.7422 86.375V87.1797C53.7422 87.8359 53.6589 88.4141 53.4922 88.9141C53.3255 89.4089 53.0938 89.8229 52.7969 90.1562C52.5 90.4896 52.1536 90.7396 51.7578 90.9062C51.362 91.0729 50.9349 91.1562 50.4766 91.1562C50.0182 91.1562 49.5911 91.0729 49.1953 90.9062C48.7995 90.7396 48.4505 90.4896 48.1484 90.1562C47.8516 89.8229 47.6198 89.4089 47.4531 88.9141C47.2865 88.4141 47.2031 87.8359 47.2031 87.1797ZM48.5859 86.375V87.1797C48.5859 87.6432 48.6328 88.0495 48.7266 88.3984C48.8203 88.7474 48.9531 89.0391 49.125 89.2734C49.2969 89.5078 49.4974 89.6849 49.7266 89.8047C49.9557 89.9193 50.2057 89.9766 50.4766 89.9766C50.7891 89.9766 51.0625 89.9193 51.2969 89.8047C51.5365 89.6849 51.7344 89.5078 51.8906 89.2734C52.0469 89.0391 52.1641 88.7474 52.2422 88.3984C52.3203 88.0495 52.3594 87.6432 52.3594 87.1797V86.375C52.3594 85.9115 52.3125 85.5078 52.2188 85.1641C52.125 84.8151 51.9922 84.5234 51.8203 84.2891C51.6484 84.0495 51.4453 83.8724 51.2109 83.7578C50.9818 83.638 50.7318 83.5781 50.4609 83.5781C50.1953 83.5781 49.9479 83.638 49.7188 83.7578C49.4896 83.8724 49.2891 84.0495 49.1172 84.2891C48.9505 84.5234 48.8203 84.8151 48.7266 85.1641C48.6328 85.5078 48.5859 85.9115 48.5859 86.375ZM57.0078 79V91H55.6328V79H57.0078ZM63.625 89.3594V79H65V91H63.7422L63.625 89.3594ZM58.8984 87.1797V86.3906C58.8984 85.6927 58.9661 85.0938 59.1016 84.5938C59.237 84.0885 59.4297 83.6745 59.6797 83.3516C59.9297 83.0234 60.2292 82.7812 60.5781 82.625C60.9271 82.4688 61.3125 82.3906 61.7344 82.3906C62.1719 82.3906 62.5469 82.4792 62.8594 82.6562C63.1771 82.8333 63.4427 83.0911 63.6562 83.4297C63.8698 83.763 64.0365 84.1693 64.1562 84.6484C64.2812 85.1224 64.3646 85.6589 64.4062 86.2578V87.3125C64.3594 87.9062 64.2734 88.4401 64.1484 88.9141C64.0286 89.388 63.862 89.7917 63.6484 90.125C63.4349 90.4583 63.1693 90.7135 62.8516 90.8906C62.5339 91.0677 62.1562 91.1562 61.7188 91.1562C61.3021 91.1562 60.9219 91.0755 60.5781 90.9141C60.2344 90.7474 59.9349 90.5 59.6797 90.1719C59.4297 89.8385 59.237 89.4245 59.1016 88.9297C58.9661 88.4297 58.8984 87.8464 58.8984 87.1797ZM60.2812 86.3906V87.1797C60.2812 87.6484 60.3151 88.0573 60.3828 88.4062C60.4505 88.75 60.5573 89.0365 60.7031 89.2656C60.849 89.4896 61.0339 89.6562 61.2578 89.7656C61.487 89.875 61.7604 89.9297 62.0781 89.9297C62.4635 89.9297 62.7786 89.8359 63.0234 89.6484C63.2682 89.4609 63.4635 89.2135 63.6094 88.9062C63.7604 88.5938 63.8802 88.2578 63.9688 87.8984V85.6797C63.9167 85.4141 63.8411 85.1589 63.7422 84.9141C63.6432 84.6641 63.5182 84.4427 63.3672 84.25C63.2214 84.0521 63.0417 83.8958 62.8281 83.7812C62.6198 83.6667 62.375 83.6094 62.0938 83.6094C61.776 83.6094 61.5 83.6667 61.2656 83.7812C61.0365 83.8958 60.849 84.0677 60.7031 84.2969C60.5625 84.526 60.4557 84.8151 60.3828 85.1641C60.3151 85.513 60.2812 85.9219 60.2812 86.3906Z" fill="#616162"/>
<path d="M16.1953 8.625V9.4375L12.2812 20H10.8281L14.7422 9.8125H9.67188V8.625H16.1953ZM19.0703 18.7891H19.1797C19.8828 18.7891 20.4479 18.6719 20.875 18.4375C21.3021 18.2031 21.6224 17.888 21.8359 17.4922C22.0547 17.0964 22.2005 16.651 22.2734 16.1562C22.3516 15.6562 22.3906 15.1432 22.3906 14.6172V12.875C22.3906 12.3594 22.3411 11.901 22.2422 11.5C22.1484 11.099 22.0208 10.763 21.8594 10.4922C21.7031 10.2214 21.5234 10.0156 21.3203 9.875C21.1224 9.73438 20.9193 9.66406 20.7109 9.66406C20.4453 9.66406 20.2109 9.73177 20.0078 9.86719C19.8047 9.9974 19.6328 10.1823 19.4922 10.4219C19.3568 10.6615 19.2526 10.9427 19.1797 11.2656C19.1068 11.5885 19.0703 11.9401 19.0703 12.3203C19.0703 12.6589 19.1016 12.987 19.1641 13.3047C19.2266 13.6224 19.3229 13.9089 19.4531 14.1641C19.5885 14.4193 19.7552 14.6224 19.9531 14.7734C20.1562 14.9193 20.3958 14.9922 20.6719 14.9922C20.901 14.9922 21.1224 14.9297 21.3359 14.8047C21.5547 14.6745 21.7526 14.5 21.9297 14.2812C22.1068 14.0573 22.2526 13.8047 22.3672 13.5234C22.4818 13.2422 22.5495 12.9479 22.5703 12.6406H23.2188C23.2188 13.0729 23.1484 13.5 23.0078 13.9219C22.8724 14.3385 22.6771 14.7188 22.4219 15.0625C22.1719 15.4062 21.8776 15.6823 21.5391 15.8906C21.2057 16.0938 20.8385 16.1953 20.4375 16.1953C19.9531 16.1953 19.5391 16.0859 19.1953 15.8672C18.8516 15.6484 18.5703 15.3568 18.3516 14.9922C18.138 14.6276 17.9792 14.2214 17.875 13.7734C17.7708 13.3203 17.7188 12.862 17.7188 12.3984C17.7188 11.8568 17.7812 11.349 17.9062 10.875C18.0312 10.401 18.2161 9.98438 18.4609 9.625C18.7109 9.26042 19.0234 8.97656 19.3984 8.77344C19.7734 8.57031 20.2109 8.46875 20.7109 8.46875C21.2682 8.46875 21.7422 8.59896 22.1328 8.85938C22.5234 9.11979 22.8385 9.46875 23.0781 9.90625C23.3177 10.3438 23.4922 10.8359 23.6016 11.3828C23.7109 11.9297 23.7656 12.4922 23.7656 13.0703V13.5938C23.7656 14.1823 23.737 14.7812 23.6797 15.3906C23.6276 15.9948 23.5156 16.5729 23.3438 17.125C23.1771 17.6771 22.9271 18.1719 22.5938 18.6094C22.2604 19.0417 21.8151 19.3854 21.2578 19.6406C20.7057 19.8906 20.013 20.0156 19.1797 20.0156H19.0781L19.0703 18.7891Z" fill="#616162"/>
<path d="M57.0312 8.5625V20H55.6484V10.3672L53.2578 11.4297V10.125L56.8203 8.5625H57.0312ZM62.0703 18.7891H62.1797C62.8828 18.7891 63.4479 18.6719 63.875 18.4375C64.3021 18.2031 64.6224 17.888 64.8359 17.4922C65.0547 17.0964 65.2005 16.651 65.2734 16.1562C65.3516 15.6562 65.3906 15.1432 65.3906 14.6172V12.875C65.3906 12.3594 65.3411 11.901 65.2422 11.5C65.1484 11.099 65.0208 10.763 64.8594 10.4922C64.7031 10.2214 64.5234 10.0156 64.3203 9.875C64.1224 9.73438 63.9193 9.66406 63.7109 9.66406C63.4453 9.66406 63.2109 9.73177 63.0078 9.86719C62.8047 9.9974 62.6328 10.1823 62.4922 10.4219C62.3568 10.6615 62.2526 10.9427 62.1797 11.2656C62.1068 11.5885 62.0703 11.9401 62.0703 12.3203C62.0703 12.6589 62.1016 12.987 62.1641 13.3047C62.2266 13.6224 62.3229 13.9089 62.4531 14.1641C62.5885 14.4193 62.7552 14.6224 62.9531 14.7734C63.1562 14.9193 63.3958 14.9922 63.6719 14.9922C63.901 14.9922 64.1224 14.9297 64.3359 14.8047C64.5547 14.6745 64.7526 14.5 64.9297 14.2812C65.1068 14.0573 65.2526 13.8047 65.3672 13.5234C65.4818 13.2422 65.5495 12.9479 65.5703 12.6406H66.2188C66.2188 13.0729 66.1484 13.5 66.0078 13.9219C65.8724 14.3385 65.6771 14.7188 65.4219 15.0625C65.1719 15.4062 64.8776 15.6823 64.5391 15.8906C64.2057 16.0938 63.8385 16.1953 63.4375 16.1953C62.9531 16.1953 62.5391 16.0859 62.1953 15.8672C61.8516 15.6484 61.5703 15.3568 61.3516 14.9922C61.138 14.6276 60.9792 14.2214 60.875 13.7734C60.7708 13.3203 60.7188 12.862 60.7188 12.3984C60.7188 11.8568 60.7812 11.349 60.9062 10.875C61.0312 10.401 61.2161 9.98438 61.4609 9.625C61.7109 9.26042 62.0234 8.97656 62.3984 8.77344C62.7734 8.57031 63.2109 8.46875 63.7109 8.46875C64.2682 8.46875 64.7422 8.59896 65.1328 8.85938C65.5234 9.11979 65.8385 9.46875 66.0781 9.90625C66.3177 10.3438 66.4922 10.8359 66.6016 11.3828C66.7109 11.9297 66.7656 12.4922 66.7656 13.0703V13.5938C66.7656 14.1823 66.737 14.7812 66.6797 15.3906C66.6276 15.9948 66.5156 16.5729 66.3438 17.125C66.1771 17.6771 65.9271 18.1719 65.5938 18.6094C65.2604 19.0417 64.8151 19.3854 64.2578 19.6406C63.7057 19.8906 63.013 20.0156 62.1797 20.0156H62.0781L62.0703 18.7891ZM73.4375 8.60938H73.5391V9.83594H73.4375C72.7812 9.83594 72.2422 9.96094 71.8203 10.2109C71.4036 10.4557 71.0781 10.7865 70.8438 11.2031C70.6146 11.6146 70.4557 12.0781 70.3672 12.5938C70.2786 13.1094 70.2344 13.6328 70.2344 14.1641V15.8359C70.2344 16.3411 70.2812 16.7891 70.375 17.1797C70.474 17.5651 70.6016 17.8906 70.7578 18.1562C70.9193 18.4219 71.099 18.6224 71.2969 18.7578C71.5 18.8932 71.7057 18.9609 71.9141 18.9609C72.1797 18.9609 72.4141 18.8984 72.6172 18.7734C72.8255 18.6432 72.9974 18.4635 73.1328 18.2344C73.2734 18 73.3802 17.724 73.4531 17.4062C73.526 17.0885 73.5625 16.7396 73.5625 16.3594C73.5625 16.0208 73.5286 15.6953 73.4609 15.3828C73.3984 15.0651 73.3021 14.7839 73.1719 14.5391C73.0417 14.2891 72.875 14.0938 72.6719 13.9531C72.474 13.8073 72.237 13.7344 71.9609 13.7344C71.6484 13.7344 71.3568 13.8333 71.0859 14.0312C70.8203 14.224 70.6016 14.4792 70.4297 14.7969C70.2578 15.1094 70.1562 15.4505 70.125 15.8203L69.4141 15.8125C69.487 15.2292 69.6094 14.7318 69.7812 14.3203C69.9531 13.9036 70.1615 13.5651 70.4062 13.3047C70.6562 13.0391 70.9323 12.8464 71.2344 12.7266C71.5365 12.6016 71.8542 12.5391 72.1875 12.5391C72.6719 12.5391 73.0859 12.6458 73.4297 12.8594C73.7786 13.0729 74.0625 13.3594 74.2812 13.7188C74.5052 14.0729 74.6693 14.474 74.7734 14.9219C74.8776 15.3646 74.9297 15.8203 74.9297 16.2891C74.9297 16.8255 74.8646 17.3281 74.7344 17.7969C74.6094 18.2656 74.4219 18.6771 74.1719 19.0312C73.9219 19.3854 73.6068 19.6615 73.2266 19.8594C72.8516 20.0573 72.4141 20.1562 71.9141 20.1562C71.3828 20.1562 70.9245 20.0312 70.5391 19.7812C70.1536 19.526 69.8333 19.1875 69.5781 18.7656C69.3281 18.3438 69.1432 17.875 69.0234 17.3594C68.9036 16.8438 68.8438 16.3203 68.8438 15.7891V15.1094C68.8438 14.3073 68.901 13.5208 69.0156 12.75C69.1302 11.9792 69.3464 11.2812 69.6641 10.6562C69.987 10.0312 70.4505 9.53385 71.0547 9.16406C71.6641 8.79427 72.4583 8.60938 73.4375 8.60938ZM78.1328 18.2812V19.4453C78.1328 19.9193 78.013 20.4193 77.7734 20.9453C77.5339 21.4766 77.1979 21.9193 76.7656 22.2734L75.9453 21.7031C76.112 21.474 76.2526 21.2396 76.3672 21C76.4818 20.7656 76.5677 20.5208 76.625 20.2656C76.6875 20.0156 76.7188 19.75 76.7188 19.4688V18.2812H78.1328ZM81.0391 18.7891H81.1484C81.8516 18.7891 82.4167 18.6719 82.8438 18.4375C83.2708 18.2031 83.5911 17.888 83.8047 17.4922C84.0234 17.0964 84.1693 16.651 84.2422 16.1562C84.3203 15.6562 84.3594 15.1432 84.3594 14.6172V12.875C84.3594 12.3594 84.3099 11.901 84.2109 11.5C84.1172 11.099 83.9896 10.763 83.8281 10.4922C83.6719 10.2214 83.4922 10.0156 83.2891 9.875C83.0911 9.73438 82.888 9.66406 82.6797 9.66406C82.4141 9.66406 82.1797 9.73177 81.9766 9.86719C81.7734 9.9974 81.6016 10.1823 81.4609 10.4219C81.3255 10.6615 81.2214 10.9427 81.1484 11.2656C81.0755 11.5885 81.0391 11.9401 81.0391 12.3203C81.0391 12.6589 81.0703 12.987 81.1328 13.3047C81.1953 13.6224 81.2917 13.9089 81.4219 14.1641C81.5573 14.4193 81.724 14.6224 81.9219 14.7734C82.125 14.9193 82.3646 14.9922 82.6406 14.9922C82.8698 14.9922 83.0911 14.9297 83.3047 14.8047C83.5234 14.6745 83.7214 14.5 83.8984 14.2812C84.0755 14.0573 84.2214 13.8047 84.3359 13.5234C84.4505 13.2422 84.5182 12.9479 84.5391 12.6406H85.1875C85.1875 13.0729 85.1172 13.5 84.9766 13.9219C84.8411 14.3385 84.6458 14.7188 84.3906 15.0625C84.1406 15.4062 83.8464 15.6823 83.5078 15.8906C83.1745 16.0938 82.8073 16.1953 82.4062 16.1953C81.9219 16.1953 81.5078 16.0859 81.1641 15.8672C80.8203 15.6484 80.5391 15.3568 80.3203 14.9922C80.1068 14.6276 79.9479 14.2214 79.8438 13.7734C79.7396 13.3203 79.6875 12.862 79.6875 12.3984C79.6875 11.8568 79.75 11.349 79.875 10.875C80 10.401 80.1849 9.98438 80.4297 9.625C80.6797 9.26042 80.9922 8.97656 81.3672 8.77344C81.7422 8.57031 82.1797 8.46875 82.6797 8.46875C83.237 8.46875 83.7109 8.59896 84.1016 8.85938C84.4922 9.11979 84.8073 9.46875 85.0469 9.90625C85.2865 10.3438 85.4609 10.8359 85.5703 11.3828C85.6797 11.9297 85.7344 12.4922 85.7344 13.0703V13.5938C85.7344 14.1823 85.7057 14.7812 85.6484 15.3906C85.5964 15.9948 85.4844 16.5729 85.3125 17.125C85.1458 17.6771 84.8958 18.1719 84.5625 18.6094C84.2292 19.0417 83.7839 19.3854 83.2266 19.6406C82.6745 19.8906 81.9818 20.0156 81.1484 20.0156H81.0469L81.0391 18.7891ZM93.9766 8.625V9.4375L90.0625 20H88.6094L92.5234 9.8125H87.4531V8.625H93.9766Z" fill="#616162"/>
</svg>
