<svg width="702" height="989" viewBox="0 0 702 989" fill="none" xmlns="http://www.w3.org/2000/svg">
<g clip-path="url(#clip0_10_4)">
<path d="M632.71 1994.69C1199.62 1994.69 1659.2 1535.33 1659.2 968.698C1659.2 402.065 1199.62 -57.2886 632.71 -57.2886C65.7978 -57.2886 -393.782 402.065 -393.782 968.698C-393.782 1535.33 65.7978 1994.69 632.71 1994.69Z" fill="#F3F3F3"/>
<path d="M624.134 1528.34C933.361 1528.34 1184.05 1277.77 1184.05 968.7C1184.05 659.625 933.361 409.064 624.134 409.064C314.907 409.064 64.2231 659.625 64.2231 968.7C64.2473 1277.77 314.907 1528.34 624.134 1528.34Z" fill="white"/>
<path d="M652.402 691.591L1085.33 -57.8916L219.472 -57.8916L652.402 691.591Z" fill="white"/>
<path d="M652.403 435.086L923.334 -33.9253L381.504 -33.9253L652.403 435.086Z" fill="#FFF7EA"/>
<path d="M437.044 236.072C462.857 236.072 483.782 215.157 483.782 189.356C483.782 163.556 462.857 142.64 437.044 142.64C411.23 142.64 390.305 163.556 390.305 189.356C390.305 215.157 411.23 236.072 437.044 236.072Z" stroke="#868689" stroke-width="28"/>
<path d="M437.148 171L464.297 124H410L437.148 171Z" fill="white"/>
<path d="M436.907 161L454.813 130H419L436.907 161Z" fill="#F9B200"/>
</g>
<defs>
<clipPath id="clip0_10_4">
<rect width="702" height="989" fill="white"/>
</clipPath>
</defs>
</svg>
