<svg width="104" height="104" viewBox="0 0 104 104" fill="none" xmlns="http://www.w3.org/2000/svg">
<rect x="2" y="2" width="100" height="100" stroke="#616162" stroke-width="3"/>
<path d="M41.3906 51.9766H34.4062V46.2812H41.3906C42.3594 46.2812 43.1484 46.0625 43.7578 45.625C44.3828 45.1875 44.8359 44.5859 45.1172 43.8203C45.3984 43.0391 45.5391 42.1641 45.5391 41.1953C45.5391 40.2109 45.3906 39.2969 45.0938 38.4531C44.8125 37.5938 44.3672 36.8984 43.7578 36.3672C43.1641 35.8359 42.375 35.5703 41.3906 35.5703H36.6094V64H29.7656V29.875H41.3906C43.6875 29.875 45.6641 30.3594 47.3203 31.3281C48.9766 32.2969 50.2422 33.6328 51.1172 35.3359C52.0078 37.0234 52.4531 38.9609 52.4531 41.1484C52.4531 43.3516 52.0078 45.2656 51.1172 46.8906C50.2422 48.5 48.9766 49.75 47.3203 50.6406C45.6641 51.5312 43.6875 51.9766 41.3906 51.9766ZM68.6719 58.3984V28H75.2578V64L69.3047 64.0234L68.6719 58.3984ZM55.5234 52.2109V50.5234C55.5234 48.4609 55.6953 46.6562 56.0391 45.1094C56.3984 43.5625 56.9297 42.2734 57.6328 41.2422C58.3359 40.2109 59.1953 39.4453 60.2109 38.9453C61.2422 38.4297 62.4219 38.1719 63.75 38.1719C64.9531 38.1719 66.0078 38.4766 66.9141 39.0859C67.8359 39.6797 68.6172 40.5156 69.2578 41.5938C69.8984 42.6719 70.4141 43.9453 70.8047 45.4141C71.1953 46.8828 71.4688 48.4922 71.625 50.2422V52.6797C71.4375 54.3359 71.1484 55.8828 70.7578 57.3203C70.3828 58.7578 69.8672 60.0078 69.2109 61.0703C68.5703 62.1328 67.7969 62.9688 66.8906 63.5781C65.9844 64.1719 64.9297 64.4688 63.7266 64.4688C62.3984 64.4688 61.2188 64.2031 60.1875 63.6719C59.1719 63.1406 58.3125 62.3594 57.6094 61.3281C56.9219 60.2812 56.3984 59 56.0391 57.4844C55.6953 55.9531 55.5234 54.1953 55.5234 52.2109ZM62.0859 50.5234V52.2109C62.0859 53.3984 62.1406 54.4219 62.25 55.2812C62.375 56.125 62.5703 56.8203 62.8359 57.3672C63.1172 57.8984 63.4844 58.2969 63.9375 58.5625C64.3906 58.8125 64.9531 58.9375 65.625 58.9375C66.5 58.9375 67.2109 58.7188 67.7578 58.2812C68.3047 57.8281 68.7109 57.2109 68.9766 56.4297C69.2578 55.6328 69.4141 54.7188 69.4453 53.6875V49.2578C69.4141 48.3984 69.3125 47.625 69.1406 46.9375C68.9688 46.25 68.7266 45.6641 68.4141 45.1797C68.1016 44.6953 67.7109 44.3203 67.2422 44.0547C66.7891 43.7891 66.2578 43.6562 65.6484 43.6562C64.9922 43.6562 64.4297 43.7891 63.9609 44.0547C63.5078 44.3203 63.1484 44.7344 62.8828 45.2969C62.6172 45.8438 62.4141 46.5547 62.2734 47.4297C62.1484 48.2891 62.0859 49.3203 62.0859 50.5234Z" fill="#616162"/>
<path d="M26.8516 86.5391H24.3672V85.3125H26.8516C27.3203 85.3125 27.6979 85.2188 27.9844 85.0312C28.276 84.8438 28.487 84.5833 28.6172 84.25C28.7526 83.9167 28.8203 83.5365 28.8203 83.1094C28.8203 82.7188 28.7526 82.3516 28.6172 82.0078C28.487 81.6641 28.276 81.388 27.9844 81.1797C27.6979 80.9661 27.3203 80.8594 26.8516 80.8594H24.6641V91H23.2266V79.625H26.8516C27.5859 79.625 28.2057 79.7734 28.7109 80.0703C29.2161 80.3672 29.599 80.7786 29.8594 81.3047C30.125 81.8255 30.2578 82.4219 30.2578 83.0938C30.2578 83.8229 30.125 84.4453 29.8594 84.9609C29.599 85.4766 29.2161 85.8698 28.7109 86.1406C28.2057 86.4062 27.5859 86.5391 26.8516 86.5391ZM35.9609 89.5547V84.9688C35.9609 84.6354 35.9089 84.3672 35.8047 84.1641C35.7057 83.9609 35.5547 83.8125 35.3516 83.7188C35.1536 83.625 34.9036 83.5781 34.6016 83.5781C34.3099 83.5781 34.0573 83.638 33.8438 83.7578C33.6354 83.8776 33.474 84.0365 33.3594 84.2344C33.25 84.4323 33.1953 84.651 33.1953 84.8906H31.8125C31.8125 84.5885 31.8776 84.2891 32.0078 83.9922C32.1432 83.6953 32.3359 83.4271 32.5859 83.1875C32.8359 82.9427 33.1354 82.75 33.4844 82.6094C33.8385 82.4635 34.2344 82.3906 34.6719 82.3906C35.1927 82.3906 35.6536 82.4766 36.0547 82.6484C36.4557 82.8151 36.7708 83.0885 37 83.4688C37.2292 83.849 37.3438 84.3542 37.3438 84.9844V89.1562C37.3438 89.4375 37.3646 89.737 37.4062 90.0547C37.4531 90.3724 37.5182 90.6458 37.6016 90.875V91H36.1719C36.1042 90.8333 36.0521 90.612 36.0156 90.3359C35.9792 90.0547 35.9609 89.7943 35.9609 89.5547ZM36.1797 85.875L36.1953 86.8906H35.2344C34.9062 86.8906 34.6068 86.9271 34.3359 87C34.0703 87.0729 33.8411 87.1797 33.6484 87.3203C33.4557 87.4557 33.3073 87.625 33.2031 87.8281C33.1042 88.0312 33.0547 88.263 33.0547 88.5234C33.0547 88.862 33.1016 89.1328 33.1953 89.3359C33.2891 89.5339 33.4297 89.6771 33.6172 89.7656C33.8047 89.8542 34.0417 89.8984 34.3281 89.8984C34.6771 89.8984 34.9844 89.8177 35.25 89.6562C35.5156 89.4948 35.7214 89.2995 35.8672 89.0703C36.0182 88.8411 36.0885 88.6276 36.0781 88.4297L36.3828 89.0781C36.362 89.2812 36.2943 89.5026 36.1797 89.7422C36.0703 89.9766 35.9167 90.2031 35.7188 90.4219C35.5208 90.6354 35.2865 90.8125 35.0156 90.9531C34.75 91.0885 34.4505 91.1562 34.1172 91.1562C33.6276 91.1562 33.1979 91.0625 32.8281 90.875C32.4635 90.6875 32.1797 90.4115 31.9766 90.0469C31.7734 89.6823 31.6719 89.2318 31.6719 88.6953C31.6719 88.2891 31.7422 87.9141 31.8828 87.5703C32.0234 87.2266 32.2318 86.9297 32.5078 86.6797C32.7839 86.4245 33.1302 86.2266 33.5469 86.0859C33.9688 85.9453 34.4557 85.875 35.0078 85.875H36.1797ZM40.9766 79V91H39.6016V79H40.9766ZM47.3047 89.5547V84.9688C47.3047 84.6354 47.2526 84.3672 47.1484 84.1641C47.0495 83.9609 46.8984 83.8125 46.6953 83.7188C46.4974 83.625 46.2474 83.5781 45.9453 83.5781C45.6536 83.5781 45.401 83.638 45.1875 83.7578C44.9792 83.8776 44.8177 84.0365 44.7031 84.2344C44.5938 84.4323 44.5391 84.651 44.5391 84.8906H43.1562C43.1562 84.5885 43.2214 84.2891 43.3516 83.9922C43.487 83.6953 43.6797 83.4271 43.9297 83.1875C44.1797 82.9427 44.4792 82.75 44.8281 82.6094C45.1823 82.4635 45.5781 82.3906 46.0156 82.3906C46.5365 82.3906 46.9974 82.4766 47.3984 82.6484C47.7995 82.8151 48.1146 83.0885 48.3438 83.4688C48.5729 83.849 48.6875 84.3542 48.6875 84.9844V89.1562C48.6875 89.4375 48.7083 89.737 48.75 90.0547C48.7969 90.3724 48.862 90.6458 48.9453 90.875V91H47.5156C47.4479 90.8333 47.3958 90.612 47.3594 90.3359C47.3229 90.0547 47.3047 89.7943 47.3047 89.5547ZM47.5234 85.875L47.5391 86.8906H46.5781C46.25 86.8906 45.9505 86.9271 45.6797 87C45.4141 87.0729 45.1849 87.1797 44.9922 87.3203C44.7995 87.4557 44.651 87.625 44.5469 87.8281C44.4479 88.0312 44.3984 88.263 44.3984 88.5234C44.3984 88.862 44.4453 89.1328 44.5391 89.3359C44.6328 89.5339 44.7734 89.6771 44.9609 89.7656C45.1484 89.8542 45.3854 89.8984 45.6719 89.8984C46.0208 89.8984 46.3281 89.8177 46.5938 89.6562C46.8594 89.4948 47.0651 89.2995 47.2109 89.0703C47.362 88.8411 47.4323 88.6276 47.4219 88.4297L47.7266 89.0781C47.7057 89.2812 47.638 89.5026 47.5234 89.7422C47.4141 89.9766 47.2604 90.2031 47.0625 90.4219C46.8646 90.6354 46.6302 90.8125 46.3594 90.9531C46.0938 91.0885 45.7943 91.1562 45.4609 91.1562C44.9714 91.1562 44.5417 91.0625 44.1719 90.875C43.8073 90.6875 43.5234 90.4115 43.3203 90.0469C43.1172 89.6823 43.0156 89.2318 43.0156 88.6953C43.0156 88.2891 43.0859 87.9141 43.2266 87.5703C43.3672 87.2266 43.5755 86.9297 43.8516 86.6797C44.1276 86.4245 44.474 86.2266 44.8906 86.0859C45.3125 85.9453 45.7995 85.875 46.3516 85.875H47.5234ZM55.2656 89.3594V79H56.6406V91H55.3828L55.2656 89.3594ZM50.5391 87.1797V86.3906C50.5391 85.6927 50.6068 85.0938 50.7422 84.5938C50.8776 84.0885 51.0703 83.6745 51.3203 83.3516C51.5703 83.0234 51.8698 82.7812 52.2188 82.625C52.5677 82.4688 52.9531 82.3906 53.375 82.3906C53.8125 82.3906 54.1875 82.4792 54.5 82.6562C54.8177 82.8333 55.0833 83.0911 55.2969 83.4297C55.5104 83.763 55.6771 84.1693 55.7969 84.6484C55.9219 85.1224 56.0052 85.6589 56.0469 86.2578V87.3125C56 87.9062 55.9141 88.4401 55.7891 88.9141C55.6693 89.388 55.5026 89.7917 55.2891 90.125C55.0755 90.4583 54.8099 90.7135 54.4922 90.8906C54.1745 91.0677 53.7969 91.1562 53.3594 91.1562C52.9427 91.1562 52.5625 91.0755 52.2188 90.9141C51.875 90.7474 51.5755 90.5 51.3203 90.1719C51.0703 89.8385 50.8776 89.4245 50.7422 88.9297C50.6068 88.4297 50.5391 87.8464 50.5391 87.1797ZM51.9219 86.3906V87.1797C51.9219 87.6484 51.9557 88.0573 52.0234 88.4062C52.0911 88.75 52.1979 89.0365 52.3438 89.2656C52.4896 89.4896 52.6745 89.6562 52.8984 89.7656C53.1276 89.875 53.401 89.9297 53.7188 89.9297C54.1042 89.9297 54.4193 89.8359 54.6641 89.6484C54.9089 89.4609 55.1042 89.2135 55.25 88.9062C55.401 88.5938 55.5208 88.2578 55.6094 87.8984V85.6797C55.5573 85.4141 55.4818 85.1589 55.3828 84.9141C55.2839 84.6641 55.1589 84.4427 55.0078 84.25C54.862 84.0521 54.6823 83.8958 54.4688 83.7812C54.2604 83.6667 54.0156 83.6094 53.7344 83.6094C53.4167 83.6094 53.1406 83.6667 52.9062 83.7812C52.6771 83.8958 52.4896 84.0677 52.3438 84.2969C52.2031 84.526 52.0964 84.8151 52.0234 85.1641C51.9557 85.513 51.9219 85.9219 51.9219 86.3906ZM60.2578 82.5469V91H58.8828V82.5469H60.2578ZM58.8047 80.3047C58.8047 80.0703 58.8698 79.8724 59 79.7109C59.1302 79.5495 59.3255 79.4688 59.5859 79.4688C59.8464 79.4688 60.0417 79.5495 60.1719 79.7109C60.3073 79.8724 60.375 80.0703 60.375 80.3047C60.375 80.5286 60.3073 80.7214 60.1719 80.8828C60.0417 81.0391 59.8464 81.1172 59.5859 81.1172C59.3255 81.1172 59.1302 81.0391 59 80.8828C58.8698 80.7214 58.8047 80.5286 58.8047 80.3047ZM66.7188 89.0469V82.5469H68.1016V91H66.7891L66.7188 89.0469ZM66.9766 87.2656L67.5234 87.25C67.5234 87.8125 67.474 88.3333 67.375 88.8125C67.2812 89.2865 67.125 89.6979 66.9062 90.0469C66.6927 90.3958 66.4089 90.6693 66.0547 90.8672C65.7005 91.0599 65.2656 91.1562 64.75 91.1562C64.401 91.1562 64.0833 91.0964 63.7969 90.9766C63.5156 90.8568 63.2708 90.6719 63.0625 90.4219C62.8594 90.1719 62.7005 89.8464 62.5859 89.4453C62.4766 89.0443 62.4219 88.5625 62.4219 88V82.5469H63.7969V88.0156C63.7969 88.3958 63.8307 88.7109 63.8984 88.9609C63.9661 89.2057 64.0573 89.401 64.1719 89.5469C64.2865 89.6875 64.4141 89.7865 64.5547 89.8438C64.6953 89.901 64.8385 89.9297 64.9844 89.9297C65.474 89.9297 65.8646 89.8125 66.1562 89.5781C66.4479 89.3385 66.6562 89.0182 66.7812 88.6172C66.9115 88.2109 66.9766 87.7604 66.9766 87.2656ZM71.5625 84.2266V91H70.1875V82.5469H71.4844L71.5625 84.2266ZM71.2812 86.4531L70.6406 86.4297C70.6354 85.8516 70.6927 85.3177 70.8125 84.8281C70.9323 84.3333 71.112 83.9036 71.3516 83.5391C71.5964 83.1745 71.901 82.8932 72.2656 82.6953C72.6354 82.4922 73.0651 82.3906 73.5547 82.3906C73.8776 82.3906 74.1771 82.4479 74.4531 82.5625C74.7344 82.6719 74.9792 82.8464 75.1875 83.0859C75.3958 83.3255 75.5573 83.6328 75.6719 84.0078C75.7917 84.3828 75.8516 84.8359 75.8516 85.3672V91H74.4688V85.4375C74.4688 84.9948 74.4089 84.6406 74.2891 84.375C74.1745 84.1094 74.0104 83.9167 73.7969 83.7969C73.5833 83.6719 73.3281 83.6094 73.0312 83.6094C72.6927 83.6094 72.4089 83.6849 72.1797 83.8359C71.9557 83.987 71.776 84.1953 71.6406 84.4609C71.5104 84.7266 71.4167 85.0312 71.3594 85.375C71.3073 85.7135 71.2812 86.0729 71.2812 86.4531ZM75.8359 85.6562L74.9141 85.9531C74.9089 85.4896 74.9661 85.0443 75.0859 84.6172C75.2057 84.1901 75.3828 83.8099 75.6172 83.4766C75.8568 83.1432 76.1536 82.8802 76.5078 82.6875C76.862 82.4896 77.2734 82.3906 77.7422 82.3906C78.1276 82.3906 78.4688 82.4505 78.7656 82.5703C79.0625 82.6901 79.3125 82.875 79.5156 83.125C79.724 83.3698 79.8802 83.6849 79.9844 84.0703C80.0885 84.4557 80.1406 84.9141 80.1406 85.4453V91H78.7578V85.4297C78.7578 84.9557 78.6979 84.5885 78.5781 84.3281C78.4635 84.0625 78.2995 83.8776 78.0859 83.7734C77.8724 83.6641 77.6172 83.6094 77.3203 83.6094C77.0807 83.6094 76.8672 83.6641 76.6797 83.7734C76.4974 83.8828 76.3438 84.0339 76.2188 84.2266C76.0938 84.4141 75.9974 84.6302 75.9297 84.875C75.8672 85.1198 75.8359 85.3802 75.8359 85.6562Z" fill="#616162"/>
<path d="M16.4219 16.1719V17.3594H9.46875V16.5078L13.6953 8.625H14.8047L13.6953 10.9062L11.0078 16.1719H16.4219ZM15.1562 8.625V20H13.7734V8.625H15.1562ZM22.5312 8.60938H22.6328V9.83594H22.5312C21.875 9.83594 21.3359 9.96094 20.9141 10.2109C20.4974 10.4557 20.1719 10.7865 19.9375 11.2031C19.7083 11.6146 19.5495 12.0781 19.4609 12.5938C19.3724 13.1094 19.3281 13.6328 19.3281 14.1641V15.8359C19.3281 16.3411 19.375 16.7891 19.4688 17.1797C19.5677 17.5651 19.6953 17.8906 19.8516 18.1562C20.013 18.4219 20.1927 18.6224 20.3906 18.7578C20.5938 18.8932 20.7995 18.9609 21.0078 18.9609C21.2734 18.9609 21.5078 18.8984 21.7109 18.7734C21.9193 18.6432 22.0911 18.4635 22.2266 18.2344C22.3672 18 22.474 17.724 22.5469 17.4062C22.6198 17.0885 22.6562 16.7396 22.6562 16.3594C22.6562 16.0208 22.6224 15.6953 22.5547 15.3828C22.4922 15.0651 22.3958 14.7839 22.2656 14.5391C22.1354 14.2891 21.9688 14.0938 21.7656 13.9531C21.5677 13.8073 21.3307 13.7344 21.0547 13.7344C20.7422 13.7344 20.4505 13.8333 20.1797 14.0312C19.9141 14.224 19.6953 14.4792 19.5234 14.7969C19.3516 15.1094 19.25 15.4505 19.2188 15.8203L18.5078 15.8125C18.5807 15.2292 18.7031 14.7318 18.875 14.3203C19.0469 13.9036 19.2552 13.5651 19.5 13.3047C19.75 13.0391 20.026 12.8464 20.3281 12.7266C20.6302 12.6016 20.9479 12.5391 21.2812 12.5391C21.7656 12.5391 22.1797 12.6458 22.5234 12.8594C22.8724 13.0729 23.1562 13.3594 23.375 13.7188C23.599 14.0729 23.763 14.474 23.8672 14.9219C23.9714 15.3646 24.0234 15.8203 24.0234 16.2891C24.0234 16.8255 23.9583 17.3281 23.8281 17.7969C23.7031 18.2656 23.5156 18.6771 23.2656 19.0312C23.0156 19.3854 22.7005 19.6615 22.3203 19.8594C21.9453 20.0573 21.5078 20.1562 21.0078 20.1562C20.4766 20.1562 20.0182 20.0312 19.6328 19.7812C19.2474 19.526 18.9271 19.1875 18.6719 18.7656C18.4219 18.3438 18.237 17.875 18.1172 17.3594C17.9974 16.8438 17.9375 16.3203 17.9375 15.7891V15.1094C17.9375 14.3073 17.9948 13.5208 18.1094 12.75C18.224 11.9792 18.4401 11.2812 18.7578 10.6562C19.0807 10.0312 19.5443 9.53385 20.1484 9.16406C20.7578 8.79427 21.5521 8.60938 22.5312 8.60938Z" fill="#616162"/>
<path d="M57.0312 8.5625V20H55.6484V10.3672L53.2578 11.4297V10.125L56.8203 8.5625H57.0312ZM66.8984 13.4062V15.1406C66.8984 16.0729 66.8255 16.8594 66.6797 17.5C66.5391 18.1406 66.3359 18.6562 66.0703 19.0469C65.8047 19.4375 65.4844 19.7214 65.1094 19.8984C64.7396 20.0703 64.3229 20.1562 63.8594 20.1562C63.4948 20.1562 63.1536 20.1016 62.8359 19.9922C62.5234 19.8828 62.2422 19.7083 61.9922 19.4688C61.7422 19.224 61.5286 18.9062 61.3516 18.5156C61.1745 18.125 61.0391 17.651 60.9453 17.0938C60.8516 16.5365 60.8047 15.8854 60.8047 15.1406V13.4062C60.8047 12.474 60.8776 11.6927 61.0234 11.0625C61.1693 10.4323 61.375 9.92708 61.6406 9.54688C61.9115 9.16146 62.2318 8.88542 62.6016 8.71875C62.9766 8.55208 63.3932 8.46875 63.8516 8.46875C64.2214 8.46875 64.5625 8.52344 64.875 8.63281C65.1927 8.73698 65.474 8.90625 65.7188 9.14062C65.9688 9.36979 66.1823 9.67708 66.3594 10.0625C66.5365 10.4427 66.6693 10.9089 66.7578 11.4609C66.8516 12.013 66.8984 12.6615 66.8984 13.4062ZM65.5234 15.375V13.1641C65.5234 12.6536 65.5 12.2057 65.4531 11.8203C65.4062 11.4297 65.3385 11.0964 65.25 10.8203C65.1615 10.5443 65.0469 10.3203 64.9062 10.1484C64.7708 9.97656 64.6146 9.85156 64.4375 9.77344C64.2604 9.6901 64.0651 9.64844 63.8516 9.64844C63.5859 9.64844 63.349 9.71354 63.1406 9.84375C62.9375 9.96875 62.763 10.1693 62.6172 10.4453C62.4766 10.7214 62.3698 11.0833 62.2969 11.5312C62.224 11.9792 62.1875 12.5234 62.1875 13.1641V15.375C62.1875 15.8854 62.2109 16.3359 62.2578 16.7266C62.3099 17.1172 62.3802 17.4557 62.4688 17.7422C62.5625 18.0234 62.6771 18.2552 62.8125 18.4375C62.9479 18.6198 63.1042 18.7552 63.2812 18.8438C63.4583 18.9271 63.651 18.9688 63.8594 18.9688C64.1354 18.9688 64.375 18.901 64.5781 18.7656C64.7865 18.6302 64.9609 18.4193 65.1016 18.1328C65.2422 17.8411 65.3464 17.4688 65.4141 17.0156C65.487 16.5573 65.5234 16.0104 65.5234 15.375ZM73.4375 8.60938H73.5391V9.83594H73.4375C72.7812 9.83594 72.2422 9.96094 71.8203 10.2109C71.4036 10.4557 71.0781 10.7865 70.8438 11.2031C70.6146 11.6146 70.4557 12.0781 70.3672 12.5938C70.2786 13.1094 70.2344 13.6328 70.2344 14.1641V15.8359C70.2344 16.3411 70.2812 16.7891 70.375 17.1797C70.474 17.5651 70.6016 17.8906 70.7578 18.1562C70.9193 18.4219 71.099 18.6224 71.2969 18.7578C71.5 18.8932 71.7057 18.9609 71.9141 18.9609C72.1797 18.9609 72.4141 18.8984 72.6172 18.7734C72.8255 18.6432 72.9974 18.4635 73.1328 18.2344C73.2734 18 73.3802 17.724 73.4531 17.4062C73.526 17.0885 73.5625 16.7396 73.5625 16.3594C73.5625 16.0208 73.5286 15.6953 73.4609 15.3828C73.3984 15.0651 73.3021 14.7839 73.1719 14.5391C73.0417 14.2891 72.875 14.0938 72.6719 13.9531C72.474 13.8073 72.237 13.7344 71.9609 13.7344C71.6484 13.7344 71.3568 13.8333 71.0859 14.0312C70.8203 14.224 70.6016 14.4792 70.4297 14.7969C70.2578 15.1094 70.1562 15.4505 70.125 15.8203L69.4141 15.8125C69.487 15.2292 69.6094 14.7318 69.7812 14.3203C69.9531 13.9036 70.1615 13.5651 70.4062 13.3047C70.6562 13.0391 70.9323 12.8464 71.2344 12.7266C71.5365 12.6016 71.8542 12.5391 72.1875 12.5391C72.6719 12.5391 73.0859 12.6458 73.4297 12.8594C73.7786 13.0729 74.0625 13.3594 74.2812 13.7188C74.5052 14.0729 74.6693 14.474 74.7734 14.9219C74.8776 15.3646 74.9297 15.8203 74.9297 16.2891C74.9297 16.8255 74.8646 17.3281 74.7344 17.7969C74.6094 18.2656 74.4219 18.6771 74.1719 19.0312C73.9219 19.3854 73.6068 19.6615 73.2266 19.8594C72.8516 20.0573 72.4141 20.1562 71.9141 20.1562C71.3828 20.1562 70.9245 20.0312 70.5391 19.7812C70.1536 19.526 69.8333 19.1875 69.5781 18.7656C69.3281 18.3438 69.1432 17.875 69.0234 17.3594C68.9036 16.8438 68.8438 16.3203 68.8438 15.7891V15.1094C68.8438 14.3073 68.901 13.5208 69.0156 12.75C69.1302 11.9792 69.3464 11.2812 69.6641 10.6562C69.987 10.0312 70.4505 9.53385 71.0547 9.16406C71.6641 8.79427 72.4583 8.60938 73.4375 8.60938ZM78.1328 18.2812V19.4453C78.1328 19.9193 78.013 20.4193 77.7734 20.9453C77.5339 21.4766 77.1979 21.9193 76.7656 22.2734L75.9453 21.7031C76.112 21.474 76.2526 21.2396 76.3672 21C76.4818 20.7656 76.5677 20.5208 76.625 20.2656C76.6875 20.0156 76.7188 19.75 76.7188 19.4688V18.2812H78.1328ZM86.2969 16.1719V17.3594H79.3438V16.5078L83.5703 8.625H84.6797L83.5703 10.9062L80.8828 16.1719H86.2969ZM85.0312 8.625V20H83.6484V8.625H85.0312ZM94.0547 18.8125V20H87.6953V18.9609L90.8281 14.8125C91.2135 14.3021 91.5078 13.8698 91.7109 13.5156C91.9141 13.1562 92.0547 12.8359 92.1328 12.5547C92.2109 12.2682 92.25 11.9766 92.25 11.6797C92.25 11.3047 92.1901 10.9661 92.0703 10.6641C91.9505 10.3568 91.776 10.112 91.5469 9.92969C91.3177 9.7474 91.0417 9.65625 90.7188 9.65625C90.2969 9.65625 89.9505 9.75521 89.6797 9.95312C89.4141 10.1458 89.2188 10.4167 89.0938 10.7656C88.9688 11.1146 88.9062 11.5156 88.9062 11.9688H87.5234C87.5234 11.3281 87.6406 10.7422 87.875 10.2109C88.1146 9.67969 88.4714 9.25781 88.9453 8.94531C89.4193 8.6276 90.0104 8.46875 90.7188 8.46875C91.3281 8.46875 91.849 8.59635 92.2812 8.85156C92.7188 9.10156 93.0521 9.45573 93.2812 9.91406C93.5156 10.3672 93.6328 10.8984 93.6328 11.5078C93.6328 11.8411 93.5859 12.1797 93.4922 12.5234C93.4036 12.862 93.2786 13.2005 93.1172 13.5391C92.9609 13.8776 92.776 14.2109 92.5625 14.5391C92.349 14.8672 92.1198 15.1901 91.875 15.5078L89.3516 18.8125H94.0547Z" fill="#616162"/>
</svg>
