<svg width="104" height="104" viewBox="0 0 104 104" fill="none" xmlns="http://www.w3.org/2000/svg">
<rect x="2" y="2" width="100" height="100" stroke="#616162" stroke-width="3"/>
<path d="M45.3906 51.9766H38.4062V46.2812H45.3906C46.3594 46.2812 47.1484 46.0625 47.7578 45.625C48.3828 45.1875 48.8359 44.5859 49.1172 43.8203C49.3984 43.0391 49.5391 42.1641 49.5391 41.1953C49.5391 40.2109 49.3906 39.2969 49.0938 38.4531C48.8125 37.5938 48.3672 36.8984 47.7578 36.3672C47.1641 35.8359 46.375 35.5703 45.3906 35.5703H40.6094V64H33.7656V29.875H45.3906C47.6875 29.875 49.6641 30.3594 51.3203 31.3281C52.9766 32.2969 54.2422 33.6328 55.1172 35.3359C56.0078 37.0234 56.4531 38.9609 56.4531 41.1484C56.4531 43.3516 56.0078 45.2656 55.1172 46.8906C54.2422 48.5 52.9766 49.75 51.3203 50.6406C49.6641 51.5312 47.6875 51.9766 45.3906 51.9766ZM72.1094 38.6406V43.5859H59.1719V38.6406H72.1094ZM62.1484 32.3828H68.6875V56.2656C68.6875 56.9688 68.7578 57.5078 68.8984 57.8828C69.0391 58.2578 69.25 58.5234 69.5312 58.6797C69.8281 58.8203 70.2188 58.8906 70.7031 58.8906C71.0312 58.8906 71.3359 58.875 71.6172 58.8438C71.8984 58.7969 72.1094 58.75 72.25 58.7031V63.8359C71.7344 64.0391 71.1875 64.1953 70.6094 64.3047C70.0469 64.4141 69.375 64.4688 68.5938 64.4688C67.2812 64.4688 66.1406 64.2188 65.1719 63.7188C64.2188 63.2188 63.4766 62.4219 62.9453 61.3281C62.4141 60.2188 62.1484 58.7656 62.1484 56.9688V32.3828Z" fill="#616162"/>
<path d="M38.8516 86.5391H36.3672V85.3125H38.8516C39.3203 85.3125 39.6979 85.2188 39.9844 85.0312C40.276 84.8438 40.487 84.5833 40.6172 84.25C40.7526 83.9167 40.8203 83.5365 40.8203 83.1094C40.8203 82.7188 40.7526 82.3516 40.6172 82.0078C40.487 81.6641 40.276 81.388 39.9844 81.1797C39.6979 80.9661 39.3203 80.8594 38.8516 80.8594H36.6641V91H35.2266V79.625H38.8516C39.5859 79.625 40.2057 79.7734 40.7109 80.0703C41.2161 80.3672 41.599 80.7786 41.8594 81.3047C42.125 81.8255 42.2578 82.4219 42.2578 83.0938C42.2578 83.8229 42.125 84.4453 41.8594 84.9609C41.599 85.4766 41.2161 85.8698 40.7109 86.1406C40.2057 86.4062 39.5859 86.5391 38.8516 86.5391ZM45.3984 79V91H44.0234V79H45.3984ZM51.7266 89.5547V84.9688C51.7266 84.6354 51.6745 84.3672 51.5703 84.1641C51.4714 83.9609 51.3203 83.8125 51.1172 83.7188C50.9193 83.625 50.6693 83.5781 50.3672 83.5781C50.0755 83.5781 49.8229 83.638 49.6094 83.7578C49.401 83.8776 49.2396 84.0365 49.125 84.2344C49.0156 84.4323 48.9609 84.651 48.9609 84.8906H47.5781C47.5781 84.5885 47.6432 84.2891 47.7734 83.9922C47.9089 83.6953 48.1016 83.4271 48.3516 83.1875C48.6016 82.9427 48.901 82.75 49.25 82.6094C49.6042 82.4635 50 82.3906 50.4375 82.3906C50.9583 82.3906 51.4193 82.4766 51.8203 82.6484C52.2214 82.8151 52.5365 83.0885 52.7656 83.4688C52.9948 83.849 53.1094 84.3542 53.1094 84.9844V89.1562C53.1094 89.4375 53.1302 89.737 53.1719 90.0547C53.2188 90.3724 53.2839 90.6458 53.3672 90.875V91H51.9375C51.8698 90.8333 51.8177 90.612 51.7812 90.3359C51.7448 90.0547 51.7266 89.7943 51.7266 89.5547ZM51.9453 85.875L51.9609 86.8906H51C50.6719 86.8906 50.3724 86.9271 50.1016 87C49.8359 87.0729 49.6068 87.1797 49.4141 87.3203C49.2214 87.4557 49.0729 87.625 48.9688 87.8281C48.8698 88.0312 48.8203 88.263 48.8203 88.5234C48.8203 88.862 48.8672 89.1328 48.9609 89.3359C49.0547 89.5339 49.1953 89.6771 49.3828 89.7656C49.5703 89.8542 49.8073 89.8984 50.0938 89.8984C50.4427 89.8984 50.75 89.8177 51.0156 89.6562C51.2812 89.4948 51.487 89.2995 51.6328 89.0703C51.7839 88.8411 51.8542 88.6276 51.8438 88.4297L52.1484 89.0781C52.1276 89.2812 52.0599 89.5026 51.9453 89.7422C51.8359 89.9766 51.6823 90.2031 51.4844 90.4219C51.2865 90.6354 51.0521 90.8125 50.7812 90.9531C50.5156 91.0885 50.2161 91.1562 49.8828 91.1562C49.3932 91.1562 48.9635 91.0625 48.5938 90.875C48.2292 90.6875 47.9453 90.4115 47.7422 90.0469C47.5391 89.6823 47.4375 89.2318 47.4375 88.6953C47.4375 88.2891 47.5078 87.9141 47.6484 87.5703C47.7891 87.2266 47.9974 86.9297 48.2734 86.6797C48.5495 86.4245 48.8958 86.2266 49.3125 86.0859C49.7344 85.9453 50.2214 85.875 50.7734 85.875H51.9453ZM58.3438 82.5469V83.6562H54.3984V82.5469H58.3438ZM55.6875 80.4922H57.0703V88.9062C57.0703 89.1927 57.1042 89.4089 57.1719 89.5547C57.2448 89.7005 57.3359 89.7969 57.4453 89.8438C57.5547 89.8906 57.6719 89.9141 57.7969 89.9141C57.8906 89.9141 57.9948 89.9036 58.1094 89.8828C58.224 89.8568 58.3021 89.8359 58.3438 89.8203L58.3359 91C58.2422 91.0365 58.1172 91.0703 57.9609 91.1016C57.8047 91.138 57.6068 91.1562 57.3672 91.1562C57.0703 91.1562 56.7943 91.0859 56.5391 90.9453C56.2839 90.8047 56.0781 90.5703 55.9219 90.2422C55.7656 89.9089 55.6875 89.4609 55.6875 88.8984V80.4922ZM61.4766 82.5469V91H60.1016V82.5469H61.4766ZM60.0234 80.3047C60.0234 80.0703 60.0885 79.8724 60.2188 79.7109C60.349 79.5495 60.5443 79.4688 60.8047 79.4688C61.0651 79.4688 61.2604 79.5495 61.3906 79.7109C61.526 79.8724 61.5938 80.0703 61.5938 80.3047C61.5938 80.5286 61.526 80.7214 61.3906 80.8828C61.2604 81.0391 61.0651 81.1172 60.8047 81.1172C60.5443 81.1172 60.349 81.0391 60.2188 80.8828C60.0885 80.7214 60.0234 80.5286 60.0234 80.3047ZM65.0469 84.3516V91H63.6641V82.5469H64.9688L65.0469 84.3516ZM64.7109 86.4531L64.1484 86.4297C64.1432 85.8516 64.2083 85.3177 64.3438 84.8281C64.4844 84.3333 64.6823 83.9036 64.9375 83.5391C65.1979 83.1745 65.5078 82.8932 65.8672 82.6953C66.2266 82.4922 66.625 82.3906 67.0625 82.3906C67.4062 82.3906 67.7188 82.4479 68 82.5625C68.2812 82.6719 68.5208 82.849 68.7188 83.0938C68.9167 83.3385 69.0677 83.6562 69.1719 84.0469C69.2812 84.4323 69.3359 84.9036 69.3359 85.4609V91H67.9531V85.4453C67.9531 85.0026 67.9036 84.6484 67.8047 84.3828C67.7109 84.112 67.5651 83.9167 67.3672 83.7969C67.1745 83.6719 66.9297 83.6094 66.6328 83.6094C66.362 83.6094 66.1094 83.6849 65.875 83.8359C65.6406 83.987 65.4349 84.1953 65.2578 84.4609C65.0859 84.7266 64.9505 85.0312 64.8516 85.375C64.7578 85.7135 64.7109 86.0729 64.7109 86.4531Z" fill="#616162"/>
<path d="M16.1953 8.625V9.4375L12.2812 20H10.8281L14.7422 9.8125H9.67188V8.625H16.1953ZM23.8906 16.9219C23.8906 17.6146 23.7578 18.2031 23.4922 18.6875C23.2266 19.1667 22.8646 19.5312 22.4062 19.7812C21.9479 20.0312 21.4297 20.1562 20.8516 20.1562C20.2786 20.1562 19.763 20.0312 19.3047 19.7812C18.8464 19.5312 18.4844 19.1667 18.2188 18.6875C17.9531 18.2031 17.8203 17.6146 17.8203 16.9219C17.8203 16.4688 17.8932 16.0547 18.0391 15.6797C18.1849 15.2995 18.3906 14.9688 18.6562 14.6875C18.9271 14.4062 19.2474 14.1901 19.6172 14.0391C19.987 13.8828 20.3958 13.8047 20.8438 13.8047C21.4323 13.8047 21.9557 13.9401 22.4141 14.2109C22.8724 14.4766 23.2318 14.8438 23.4922 15.3125C23.7578 15.7812 23.8906 16.3177 23.8906 16.9219ZM22.5156 16.8906C22.5156 16.4688 22.4453 16.0964 22.3047 15.7734C22.1693 15.4453 21.9766 15.1901 21.7266 15.0078C21.4766 14.8255 21.1823 14.7344 20.8438 14.7344C20.5 14.7344 20.2057 14.8255 19.9609 15.0078C19.7161 15.1901 19.526 15.4453 19.3906 15.7734C19.2604 16.0964 19.1953 16.4688 19.1953 16.8906C19.1953 17.3281 19.2604 17.7031 19.3906 18.0156C19.5208 18.3229 19.7083 18.5599 19.9531 18.7266C20.2031 18.888 20.5052 18.9688 20.8594 18.9688C21.2083 18.9688 21.5052 18.888 21.75 18.7266C22 18.5599 22.1901 18.3229 22.3203 18.0156C22.4505 17.7031 22.5156 17.3281 22.5156 16.8906ZM23.6797 11.5859C23.6797 12.138 23.5573 12.6354 23.3125 13.0781C23.0677 13.5208 22.7318 13.8698 22.3047 14.125C21.8828 14.3802 21.401 14.5078 20.8594 14.5078C20.3073 14.5078 19.8177 14.3802 19.3906 14.125C18.9635 13.8698 18.6302 13.5208 18.3906 13.0781C18.151 12.6354 18.0312 12.138 18.0312 11.5859C18.0312 10.9245 18.151 10.362 18.3906 9.89844C18.6354 9.4349 18.9714 9.08073 19.3984 8.83594C19.8255 8.59115 20.3125 8.46875 20.8594 8.46875C21.4115 8.46875 21.8984 8.59115 22.3203 8.83594C22.7422 9.08073 23.0729 9.4349 23.3125 9.89844C23.5573 10.362 23.6797 10.9245 23.6797 11.5859ZM22.2969 11.6094C22.2969 11.2292 22.237 10.8932 22.1172 10.6016C22.0026 10.3099 21.8359 10.0807 21.6172 9.91406C21.4036 9.74219 21.151 9.65625 20.8594 9.65625C20.5677 9.65625 20.3125 9.73698 20.0938 9.89844C19.8802 10.0547 19.7135 10.2786 19.5938 10.5703C19.474 10.862 19.4141 11.2083 19.4141 11.6094C19.4141 12 19.4714 12.3411 19.5859 12.6328C19.7057 12.9245 19.875 13.151 20.0938 13.3125C20.3125 13.474 20.5677 13.5547 20.8594 13.5547C21.151 13.5547 21.4036 13.474 21.6172 13.3125C21.8359 13.151 22.0026 12.9245 22.1172 12.6328C22.237 12.3411 22.2969 12 22.2969 11.6094Z" fill="#616162"/>
<path d="M57.0312 8.5625V20H55.6484V10.3672L53.2578 11.4297V10.125L56.8203 8.5625H57.0312ZM62.0703 18.7891H62.1797C62.8828 18.7891 63.4479 18.6719 63.875 18.4375C64.3021 18.2031 64.6224 17.888 64.8359 17.4922C65.0547 17.0964 65.2005 16.651 65.2734 16.1562C65.3516 15.6562 65.3906 15.1432 65.3906 14.6172V12.875C65.3906 12.3594 65.3411 11.901 65.2422 11.5C65.1484 11.099 65.0208 10.763 64.8594 10.4922C64.7031 10.2214 64.5234 10.0156 64.3203 9.875C64.1224 9.73438 63.9193 9.66406 63.7109 9.66406C63.4453 9.66406 63.2109 9.73177 63.0078 9.86719C62.8047 9.9974 62.6328 10.1823 62.4922 10.4219C62.3568 10.6615 62.2526 10.9427 62.1797 11.2656C62.1068 11.5885 62.0703 11.9401 62.0703 12.3203C62.0703 12.6589 62.1016 12.987 62.1641 13.3047C62.2266 13.6224 62.3229 13.9089 62.4531 14.1641C62.5885 14.4193 62.7552 14.6224 62.9531 14.7734C63.1562 14.9193 63.3958 14.9922 63.6719 14.9922C63.901 14.9922 64.1224 14.9297 64.3359 14.8047C64.5547 14.6745 64.7526 14.5 64.9297 14.2812C65.1068 14.0573 65.2526 13.8047 65.3672 13.5234C65.4818 13.2422 65.5495 12.9479 65.5703 12.6406H66.2188C66.2188 13.0729 66.1484 13.5 66.0078 13.9219C65.8724 14.3385 65.6771 14.7188 65.4219 15.0625C65.1719 15.4062 64.8776 15.6823 64.5391 15.8906C64.2057 16.0938 63.8385 16.1953 63.4375 16.1953C62.9531 16.1953 62.5391 16.0859 62.1953 15.8672C61.8516 15.6484 61.5703 15.3568 61.3516 14.9922C61.138 14.6276 60.9792 14.2214 60.875 13.7734C60.7708 13.3203 60.7188 12.862 60.7188 12.3984C60.7188 11.8568 60.7812 11.349 60.9062 10.875C61.0312 10.401 61.2161 9.98438 61.4609 9.625C61.7109 9.26042 62.0234 8.97656 62.3984 8.77344C62.7734 8.57031 63.2109 8.46875 63.7109 8.46875C64.2682 8.46875 64.7422 8.59896 65.1328 8.85938C65.5234 9.11979 65.8385 9.46875 66.0781 9.90625C66.3177 10.3438 66.4922 10.8359 66.6016 11.3828C66.7109 11.9297 66.7656 12.4922 66.7656 13.0703V13.5938C66.7656 14.1823 66.737 14.7812 66.6797 15.3906C66.6276 15.9948 66.5156 16.5729 66.3438 17.125C66.1771 17.6771 65.9271 18.1719 65.5938 18.6094C65.2604 19.0417 64.8151 19.3854 64.2578 19.6406C63.7057 19.8906 63.013 20.0156 62.1797 20.0156H62.0781L62.0703 18.7891ZM70.3984 14.5859L69.2969 14.2891L69.7812 8.625H74.7344V9.96094H70.9453L70.6797 13.0547C70.8568 12.9349 71.0703 12.8229 71.3203 12.7188C71.5703 12.6146 71.862 12.5625 72.1953 12.5625C72.6432 12.5625 73.0417 12.6536 73.3906 12.8359C73.7448 13.013 74.0443 13.2682 74.2891 13.6016C74.5339 13.9349 74.7214 14.3359 74.8516 14.8047C74.9818 15.2734 75.0469 15.7969 75.0469 16.375C75.0469 16.9219 74.9818 17.4245 74.8516 17.8828C74.7266 18.3411 74.5339 18.7422 74.2734 19.0859C74.0182 19.4245 73.6953 19.6875 73.3047 19.875C72.9193 20.0625 72.4688 20.1562 71.9531 20.1562C71.5677 20.1562 71.2031 20.0938 70.8594 19.9688C70.5156 19.8385 70.2057 19.6432 69.9297 19.3828C69.6589 19.1172 69.4375 18.7891 69.2656 18.3984C69.0938 18.0026 68.987 17.5391 68.9453 17.0078H70.25C70.3021 17.4349 70.401 17.7943 70.5469 18.0859C70.6979 18.3776 70.8906 18.599 71.125 18.75C71.3646 18.8958 71.6406 18.9688 71.9531 18.9688C72.2188 18.9688 72.4583 18.9089 72.6719 18.7891C72.8854 18.6693 73.0651 18.4974 73.2109 18.2734C73.3568 18.0495 73.4688 17.7786 73.5469 17.4609C73.625 17.1432 73.6641 16.7865 73.6641 16.3906C73.6641 16.0312 73.625 15.6979 73.5469 15.3906C73.4688 15.0833 73.3516 14.8151 73.1953 14.5859C73.0391 14.3568 72.849 14.1797 72.625 14.0547C72.4062 13.9245 72.151 13.8594 71.8594 13.8594C71.4688 13.8594 71.1797 13.9245 70.9922 14.0547C70.8099 14.1849 70.612 14.362 70.3984 14.5859ZM78.1328 18.2812V19.4453C78.1328 19.9193 78.013 20.4193 77.7734 20.9453C77.5339 21.4766 77.1979 21.9193 76.7656 22.2734L75.9453 21.7031C76.112 21.474 76.2526 21.2396 76.3672 21C76.4818 20.7656 76.5677 20.5208 76.625 20.2656C76.6875 20.0156 76.7188 19.75 76.7188 19.4688V18.2812H78.1328ZM85.8672 13.4062V15.1406C85.8672 16.0729 85.7943 16.8594 85.6484 17.5C85.5078 18.1406 85.3047 18.6562 85.0391 19.0469C84.7734 19.4375 84.4531 19.7214 84.0781 19.8984C83.7083 20.0703 83.2917 20.1562 82.8281 20.1562C82.4635 20.1562 82.1224 20.1016 81.8047 19.9922C81.4922 19.8828 81.2109 19.7083 80.9609 19.4688C80.7109 19.224 80.4974 18.9062 80.3203 18.5156C80.1432 18.125 80.0078 17.651 79.9141 17.0938C79.8203 16.5365 79.7734 15.8854 79.7734 15.1406V13.4062C79.7734 12.474 79.8464 11.6927 79.9922 11.0625C80.138 10.4323 80.3438 9.92708 80.6094 9.54688C80.8802 9.16146 81.2005 8.88542 81.5703 8.71875C81.9453 8.55208 82.362 8.46875 82.8203 8.46875C83.1901 8.46875 83.5312 8.52344 83.8438 8.63281C84.1615 8.73698 84.4427 8.90625 84.6875 9.14062C84.9375 9.36979 85.151 9.67708 85.3281 10.0625C85.5052 10.4427 85.638 10.9089 85.7266 11.4609C85.8203 12.013 85.8672 12.6615 85.8672 13.4062ZM84.4922 15.375V13.1641C84.4922 12.6536 84.4688 12.2057 84.4219 11.8203C84.375 11.4297 84.3073 11.0964 84.2188 10.8203C84.1302 10.5443 84.0156 10.3203 83.875 10.1484C83.7396 9.97656 83.5833 9.85156 83.4062 9.77344C83.2292 9.6901 83.0339 9.64844 82.8203 9.64844C82.5547 9.64844 82.3177 9.71354 82.1094 9.84375C81.9062 9.96875 81.7318 10.1693 81.5859 10.4453C81.4453 10.7214 81.3385 11.0833 81.2656 11.5312C81.1927 11.9792 81.1562 12.5234 81.1562 13.1641V15.375C81.1562 15.8854 81.1797 16.3359 81.2266 16.7266C81.2786 17.1172 81.349 17.4557 81.4375 17.7422C81.5312 18.0234 81.6458 18.2552 81.7812 18.4375C81.9167 18.6198 82.0729 18.7552 82.25 18.8438C82.4271 18.9271 82.6198 18.9688 82.8281 18.9688C83.1042 18.9688 83.3438 18.901 83.5469 18.7656C83.7552 18.6302 83.9297 18.4193 84.0703 18.1328C84.2109 17.8411 84.3151 17.4688 84.3828 17.0156C84.4557 16.5573 84.4922 16.0104 84.4922 15.375ZM93.7656 16.9219C93.7656 17.6146 93.6328 18.2031 93.3672 18.6875C93.1016 19.1667 92.7396 19.5312 92.2812 19.7812C91.8229 20.0312 91.3047 20.1562 90.7266 20.1562C90.1536 20.1562 89.638 20.0312 89.1797 19.7812C88.7214 19.5312 88.3594 19.1667 88.0938 18.6875C87.8281 18.2031 87.6953 17.6146 87.6953 16.9219C87.6953 16.4688 87.7682 16.0547 87.9141 15.6797C88.0599 15.2995 88.2656 14.9688 88.5312 14.6875C88.8021 14.4062 89.1224 14.1901 89.4922 14.0391C89.862 13.8828 90.2708 13.8047 90.7188 13.8047C91.3073 13.8047 91.8307 13.9401 92.2891 14.2109C92.7474 14.4766 93.1068 14.8438 93.3672 15.3125C93.6328 15.7812 93.7656 16.3177 93.7656 16.9219ZM92.3906 16.8906C92.3906 16.4688 92.3203 16.0964 92.1797 15.7734C92.0443 15.4453 91.8516 15.1901 91.6016 15.0078C91.3516 14.8255 91.0573 14.7344 90.7188 14.7344C90.375 14.7344 90.0807 14.8255 89.8359 15.0078C89.5911 15.1901 89.401 15.4453 89.2656 15.7734C89.1354 16.0964 89.0703 16.4688 89.0703 16.8906C89.0703 17.3281 89.1354 17.7031 89.2656 18.0156C89.3958 18.3229 89.5833 18.5599 89.8281 18.7266C90.0781 18.888 90.3802 18.9688 90.7344 18.9688C91.0833 18.9688 91.3802 18.888 91.625 18.7266C91.875 18.5599 92.0651 18.3229 92.1953 18.0156C92.3255 17.7031 92.3906 17.3281 92.3906 16.8906ZM93.5547 11.5859C93.5547 12.138 93.4323 12.6354 93.1875 13.0781C92.9427 13.5208 92.6068 13.8698 92.1797 14.125C91.7578 14.3802 91.276 14.5078 90.7344 14.5078C90.1823 14.5078 89.6927 14.3802 89.2656 14.125C88.8385 13.8698 88.5052 13.5208 88.2656 13.0781C88.026 12.6354 87.9062 12.138 87.9062 11.5859C87.9062 10.9245 88.026 10.362 88.2656 9.89844C88.5104 9.4349 88.8464 9.08073 89.2734 8.83594C89.7005 8.59115 90.1875 8.46875 90.7344 8.46875C91.2865 8.46875 91.7734 8.59115 92.1953 8.83594C92.6172 9.08073 92.9479 9.4349 93.1875 9.89844C93.4323 10.362 93.5547 10.9245 93.5547 11.5859ZM92.1719 11.6094C92.1719 11.2292 92.112 10.8932 91.9922 10.6016C91.8776 10.3099 91.7109 10.0807 91.4922 9.91406C91.2786 9.74219 91.026 9.65625 90.7344 9.65625C90.4427 9.65625 90.1875 9.73698 89.9688 9.89844C89.7552 10.0547 89.5885 10.2786 89.4688 10.5703C89.349 10.862 89.2891 11.2083 89.2891 11.6094C89.2891 12 89.3464 12.3411 89.4609 12.6328C89.5807 12.9245 89.75 13.151 89.9688 13.3125C90.1875 13.474 90.4427 13.5547 90.7344 13.5547C91.026 13.5547 91.2786 13.474 91.4922 13.3125C91.7109 13.151 91.8776 12.9245 91.9922 12.6328C92.112 12.3411 92.1719 12 92.1719 11.6094Z" fill="#616162"/>
</svg>
